<mxfile host="app.diagrams.net" modified="2021-12-31T03:07:28.308Z" agent="5.0 (X11; Linux x86_64) AppleWebKit/537.36 (KHTML, like Gecko) Chrome/96.0.4664.110 Safari/537.36" etag="eB1o7CewF-WeKkg7hBiF" version="16.1.2" type="github">
  <diagram id="C5RBs43oDa-KdzZeNtuy" name="Page-1">
    <mxGraphModel dx="1990" dy="1099" grid="1" gridSize="10" guides="1" tooltips="1" connect="1" arrows="1" fold="1" page="1" pageScale="1" pageWidth="1600" pageHeight="900" math="0" shadow="0">
      <root>
        <mxCell id="WIyWlLk6GJQsqaUBKTNV-0" />
        <mxCell id="WIyWlLk6GJQsqaUBKTNV-1" parent="WIyWlLk6GJQsqaUBKTNV-0" />
        <mxCell id="L4YSeKDSiHvdE6etaK4i-0" value="红色标注为两个实现方案的不同流程，黑色为相同流程。" style="text;html=1;strokeColor=none;fillColor=none;align=center;verticalAlign=middle;whiteSpace=wrap;rounded=0;fontColor=#FF0000;fontSize=18;" vertex="1" parent="WIyWlLk6GJQsqaUBKTNV-1">
          <mxGeometry x="20" y="10" width="540" height="30" as="geometry" />
        </mxCell>
        <mxCell id="L4YSeKDSiHvdE6etaK4i-28" value="" style="group" vertex="1" connectable="0" parent="WIyWlLk6GJQsqaUBKTNV-1">
          <mxGeometry x="880" y="50" width="600" height="840" as="geometry" />
        </mxCell>
        <mxCell id="pVRDitvzTMO9ISy7cJ-t-82" value="" style="rounded=0;whiteSpace=wrap;html=1;fillColor=none;strokeColor=#FF0000;fontColor=#FF0000;fontSize=18;" parent="L4YSeKDSiHvdE6etaK4i-28" vertex="1">
          <mxGeometry x="160" y="460" width="310" height="170" as="geometry" />
        </mxCell>
        <mxCell id="WIyWlLk6GJQsqaUBKTNV-3" value="SDK 1&lt;br style=&quot;font-size: 13px;&quot;&gt;Doc" style="whiteSpace=wrap;html=1;fontSize=13;glass=0;strokeWidth=1;shadow=0;" parent="L4YSeKDSiHvdE6etaK4i-28" vertex="1">
          <mxGeometry y="160" width="120" height="40" as="geometry" />
        </mxCell>
        <mxCell id="pVRDitvzTMO9ISy7cJ-t-0" value="SDK 2&lt;br style=&quot;font-size: 13px;&quot;&gt;Doc" style="whiteSpace=wrap;html=1;fontSize=13;glass=0;strokeWidth=1;shadow=0;" parent="L4YSeKDSiHvdE6etaK4i-28" vertex="1">
          <mxGeometry x="160" y="160" width="120" height="40" as="geometry" />
        </mxCell>
        <mxCell id="pVRDitvzTMO9ISy7cJ-t-1" value="SDK 3&lt;br style=&quot;font-size: 13px;&quot;&gt;Doc" style="whiteSpace=wrap;html=1;fontSize=13;glass=0;strokeWidth=1;shadow=0;" parent="L4YSeKDSiHvdE6etaK4i-28" vertex="1">
          <mxGeometry x="320" y="160" width="120" height="40" as="geometry" />
        </mxCell>
        <mxCell id="pVRDitvzTMO9ISy7cJ-t-6" value="....." style="whiteSpace=wrap;html=1;fontSize=13;glass=0;strokeWidth=1;shadow=0;" parent="L4YSeKDSiHvdE6etaK4i-28" vertex="1">
          <mxGeometry x="480" y="160" width="120" height="40" as="geometry" />
        </mxCell>
        <mxCell id="pVRDitvzTMO9ISy7cJ-t-8" value="&lt;br style=&quot;font-size: 18px;&quot;&gt;user" style="shape=actor;whiteSpace=wrap;html=1;fontSize=18;" parent="L4YSeKDSiHvdE6etaK4i-28" vertex="1">
          <mxGeometry x="290" y="780" width="40" height="60" as="geometry" />
        </mxCell>
        <mxCell id="pVRDitvzTMO9ISy7cJ-t-9" value="Plan B" style="text;html=1;resizable=0;autosize=1;align=center;verticalAlign=middle;points=[];fillColor=none;strokeColor=none;rounded=0;fontSize=18;" parent="L4YSeKDSiHvdE6etaK4i-28" vertex="1">
          <mxGeometry width="70" height="30" as="geometry" />
        </mxCell>
        <mxCell id="pVRDitvzTMO9ISy7cJ-t-18" style="edgeStyle=orthogonalEdgeStyle;rounded=0;orthogonalLoop=1;jettySize=auto;html=1;entryX=0.5;entryY=0;entryDx=0;entryDy=0;fontSize=18;" parent="L4YSeKDSiHvdE6etaK4i-28" source="pVRDitvzTMO9ISy7cJ-t-13" target="pVRDitvzTMO9ISy7cJ-t-0" edge="1">
          <mxGeometry relative="1" as="geometry" />
        </mxCell>
        <mxCell id="pVRDitvzTMO9ISy7cJ-t-13" value="Team 2" style="whiteSpace=wrap;html=1;fontSize=18;glass=0;strokeWidth=1;shadow=0;" parent="L4YSeKDSiHvdE6etaK4i-28" vertex="1">
          <mxGeometry x="160" y="60" width="120" height="40" as="geometry" />
        </mxCell>
        <mxCell id="pVRDitvzTMO9ISy7cJ-t-17" style="edgeStyle=orthogonalEdgeStyle;rounded=0;orthogonalLoop=1;jettySize=auto;html=1;entryX=0.5;entryY=0;entryDx=0;entryDy=0;fontSize=18;" parent="L4YSeKDSiHvdE6etaK4i-28" source="pVRDitvzTMO9ISy7cJ-t-14" target="WIyWlLk6GJQsqaUBKTNV-3" edge="1">
          <mxGeometry relative="1" as="geometry" />
        </mxCell>
        <mxCell id="pVRDitvzTMO9ISy7cJ-t-14" value="Team 1" style="whiteSpace=wrap;html=1;fontSize=18;glass=0;strokeWidth=1;shadow=0;" parent="L4YSeKDSiHvdE6etaK4i-28" vertex="1">
          <mxGeometry y="60" width="120" height="40" as="geometry" />
        </mxCell>
        <mxCell id="pVRDitvzTMO9ISy7cJ-t-19" style="edgeStyle=orthogonalEdgeStyle;rounded=0;orthogonalLoop=1;jettySize=auto;html=1;entryX=0.5;entryY=0;entryDx=0;entryDy=0;fontSize=18;" parent="L4YSeKDSiHvdE6etaK4i-28" source="pVRDitvzTMO9ISy7cJ-t-15" target="pVRDitvzTMO9ISy7cJ-t-1" edge="1">
          <mxGeometry relative="1" as="geometry" />
        </mxCell>
        <mxCell id="pVRDitvzTMO9ISy7cJ-t-15" value="Team3" style="whiteSpace=wrap;html=1;fontSize=18;glass=0;strokeWidth=1;shadow=0;" parent="L4YSeKDSiHvdE6etaK4i-28" vertex="1">
          <mxGeometry x="320" y="60" width="120" height="40" as="geometry" />
        </mxCell>
        <mxCell id="pVRDitvzTMO9ISy7cJ-t-20" style="edgeStyle=orthogonalEdgeStyle;rounded=0;orthogonalLoop=1;jettySize=auto;html=1;entryX=0.5;entryY=0;entryDx=0;entryDy=0;fontSize=18;" parent="L4YSeKDSiHvdE6etaK4i-28" source="pVRDitvzTMO9ISy7cJ-t-16" target="pVRDitvzTMO9ISy7cJ-t-6" edge="1">
          <mxGeometry relative="1" as="geometry" />
        </mxCell>
        <mxCell id="pVRDitvzTMO9ISy7cJ-t-16" value="....." style="whiteSpace=wrap;html=1;fontSize=18;glass=0;strokeWidth=1;shadow=0;" parent="L4YSeKDSiHvdE6etaK4i-28" vertex="1">
          <mxGeometry x="480" y="60" width="120" height="40" as="geometry" />
        </mxCell>
        <mxCell id="pVRDitvzTMO9ISy7cJ-t-28" value="Github" style="rounded=0;whiteSpace=wrap;html=1;fontSize=18;" parent="L4YSeKDSiHvdE6etaK4i-28" vertex="1">
          <mxGeometry x="220" y="280" width="180" height="40" as="geometry" />
        </mxCell>
        <mxCell id="pVRDitvzTMO9ISy7cJ-t-31" style="edgeStyle=orthogonalEdgeStyle;rounded=0;orthogonalLoop=1;jettySize=auto;html=1;fontSize=18;" parent="L4YSeKDSiHvdE6etaK4i-28" source="WIyWlLk6GJQsqaUBKTNV-3" target="pVRDitvzTMO9ISy7cJ-t-28" edge="1">
          <mxGeometry relative="1" as="geometry">
            <Array as="points">
              <mxPoint x="60" y="230" />
              <mxPoint x="310" y="230" />
            </Array>
          </mxGeometry>
        </mxCell>
        <mxCell id="pVRDitvzTMO9ISy7cJ-t-32" style="edgeStyle=orthogonalEdgeStyle;rounded=0;orthogonalLoop=1;jettySize=auto;html=1;entryX=0.5;entryY=0;entryDx=0;entryDy=0;fontSize=18;" parent="L4YSeKDSiHvdE6etaK4i-28" source="pVRDitvzTMO9ISy7cJ-t-0" target="pVRDitvzTMO9ISy7cJ-t-28" edge="1">
          <mxGeometry relative="1" as="geometry">
            <Array as="points">
              <mxPoint x="220" y="230" />
              <mxPoint x="310" y="230" />
            </Array>
          </mxGeometry>
        </mxCell>
        <mxCell id="pVRDitvzTMO9ISy7cJ-t-33" style="edgeStyle=orthogonalEdgeStyle;rounded=0;orthogonalLoop=1;jettySize=auto;html=1;entryX=0.5;entryY=0;entryDx=0;entryDy=0;fontSize=18;" parent="L4YSeKDSiHvdE6etaK4i-28" source="pVRDitvzTMO9ISy7cJ-t-1" target="pVRDitvzTMO9ISy7cJ-t-28" edge="1">
          <mxGeometry relative="1" as="geometry">
            <Array as="points">
              <mxPoint x="380" y="230" />
              <mxPoint x="310" y="230" />
            </Array>
          </mxGeometry>
        </mxCell>
        <mxCell id="pVRDitvzTMO9ISy7cJ-t-34" style="edgeStyle=orthogonalEdgeStyle;rounded=0;orthogonalLoop=1;jettySize=auto;html=1;entryX=0.5;entryY=0;entryDx=0;entryDy=0;fontSize=18;" parent="L4YSeKDSiHvdE6etaK4i-28" source="pVRDitvzTMO9ISy7cJ-t-6" target="pVRDitvzTMO9ISy7cJ-t-28" edge="1">
          <mxGeometry relative="1" as="geometry">
            <Array as="points">
              <mxPoint x="540" y="230" />
              <mxPoint x="310" y="230" />
            </Array>
          </mxGeometry>
        </mxCell>
        <mxCell id="pVRDitvzTMO9ISy7cJ-t-30" value="Deployed on k8s &lt;br style=&quot;font-size: 18px;&quot;&gt;(with private IP)" style="rounded=0;whiteSpace=wrap;html=1;fontSize=18;" parent="L4YSeKDSiHvdE6etaK4i-28" vertex="1">
          <mxGeometry x="220" y="370" width="180" height="50" as="geometry" />
        </mxCell>
        <mxCell id="pVRDitvzTMO9ISy7cJ-t-35" style="edgeStyle=orthogonalEdgeStyle;rounded=0;orthogonalLoop=1;jettySize=auto;html=1;entryX=0.5;entryY=0;entryDx=0;entryDy=0;fontSize=18;" parent="L4YSeKDSiHvdE6etaK4i-28" source="pVRDitvzTMO9ISy7cJ-t-28" target="pVRDitvzTMO9ISy7cJ-t-30" edge="1">
          <mxGeometry relative="1" as="geometry" />
        </mxCell>
        <mxCell id="pVRDitvzTMO9ISy7cJ-t-51" style="edgeStyle=orthogonalEdgeStyle;rounded=0;orthogonalLoop=1;jettySize=auto;html=1;fontSize=18;" parent="L4YSeKDSiHvdE6etaK4i-28" source="pVRDitvzTMO9ISy7cJ-t-37" edge="1">
          <mxGeometry relative="1" as="geometry">
            <mxPoint x="310" y="760" as="targetPoint" />
          </mxGeometry>
        </mxCell>
        <mxCell id="pVRDitvzTMO9ISy7cJ-t-37" value="Frontent call api to&lt;br style=&quot;font-size: 18px;&quot;&gt;render the view" style="rounded=0;whiteSpace=wrap;html=1;fontSize=18;strokeColor=#FF0000;fontColor=#FF0000;" parent="L4YSeKDSiHvdE6etaK4i-28" vertex="1">
          <mxGeometry x="220" y="670" width="180" height="50" as="geometry" />
        </mxCell>
        <mxCell id="pVRDitvzTMO9ISy7cJ-t-48" style="edgeStyle=orthogonalEdgeStyle;rounded=0;orthogonalLoop=1;jettySize=auto;html=1;fontSize=18;strokeColor=#FF0000;" parent="L4YSeKDSiHvdE6etaK4i-28" source="pVRDitvzTMO9ISy7cJ-t-43" edge="1">
          <mxGeometry relative="1" as="geometry">
            <mxPoint x="310" y="530" as="targetPoint" />
          </mxGeometry>
        </mxCell>
        <mxCell id="pVRDitvzTMO9ISy7cJ-t-43" value="Normalize data" style="text;html=1;strokeColor=#FF0000;fillColor=none;align=center;verticalAlign=middle;whiteSpace=wrap;rounded=0;fontSize=18;fontColor=#FF0000;" parent="L4YSeKDSiHvdE6etaK4i-28" vertex="1">
          <mxGeometry x="220" y="460" width="180" height="35" as="geometry" />
        </mxCell>
        <mxCell id="pVRDitvzTMO9ISy7cJ-t-44" style="edgeStyle=orthogonalEdgeStyle;rounded=0;orthogonalLoop=1;jettySize=auto;html=1;entryX=0.5;entryY=0;entryDx=0;entryDy=0;fontSize=18;" parent="L4YSeKDSiHvdE6etaK4i-28" source="pVRDitvzTMO9ISy7cJ-t-30" target="pVRDitvzTMO9ISy7cJ-t-43" edge="1">
          <mxGeometry relative="1" as="geometry" />
        </mxCell>
        <mxCell id="pVRDitvzTMO9ISy7cJ-t-49" style="edgeStyle=orthogonalEdgeStyle;rounded=0;orthogonalLoop=1;jettySize=auto;html=1;fontSize=18;strokeColor=#FF0000;" parent="L4YSeKDSiHvdE6etaK4i-28" target="pVRDitvzTMO9ISy7cJ-t-47" edge="1">
          <mxGeometry relative="1" as="geometry">
            <mxPoint x="310" y="560" as="sourcePoint" />
          </mxGeometry>
        </mxCell>
        <mxCell id="pVRDitvzTMO9ISy7cJ-t-46" value="Store data in the database" style="text;html=1;strokeColor=#FF0000;fillColor=none;align=center;verticalAlign=middle;whiteSpace=wrap;rounded=0;fontSize=18;fontColor=#FF0000;" parent="L4YSeKDSiHvdE6etaK4i-28" vertex="1">
          <mxGeometry x="170" y="540" width="270" height="20" as="geometry" />
        </mxCell>
        <mxCell id="pVRDitvzTMO9ISy7cJ-t-50" style="edgeStyle=orthogonalEdgeStyle;rounded=0;orthogonalLoop=1;jettySize=auto;html=1;entryX=0.5;entryY=0;entryDx=0;entryDy=0;fontSize=18;strokeColor=#FF0000;" parent="L4YSeKDSiHvdE6etaK4i-28" source="pVRDitvzTMO9ISy7cJ-t-47" target="pVRDitvzTMO9ISy7cJ-t-37" edge="1">
          <mxGeometry relative="1" as="geometry" />
        </mxCell>
        <mxCell id="pVRDitvzTMO9ISy7cJ-t-47" value="Develop api to&amp;nbsp;retrieve data" style="text;html=1;strokeColor=#FF0000;fillColor=none;align=center;verticalAlign=middle;whiteSpace=wrap;rounded=0;fontSize=18;fontColor=#FF0000;" parent="L4YSeKDSiHvdE6etaK4i-28" vertex="1">
          <mxGeometry x="180" y="600" width="260" height="30" as="geometry" />
        </mxCell>
        <mxCell id="L4YSeKDSiHvdE6etaK4i-29" value="" style="group" vertex="1" connectable="0" parent="WIyWlLk6GJQsqaUBKTNV-1">
          <mxGeometry x="60" y="50" width="600" height="710" as="geometry" />
        </mxCell>
        <mxCell id="pVRDitvzTMO9ISy7cJ-t-81" value="Plan A" style="text;html=1;resizable=0;autosize=1;align=center;verticalAlign=middle;points=[];fillColor=none;strokeColor=none;rounded=0;fontSize=18;" parent="L4YSeKDSiHvdE6etaK4i-29" vertex="1">
          <mxGeometry width="70" height="30" as="geometry" />
        </mxCell>
        <mxCell id="L4YSeKDSiHvdE6etaK4i-27" value="" style="group" vertex="1" connectable="0" parent="L4YSeKDSiHvdE6etaK4i-29">
          <mxGeometry y="50" width="600" height="660" as="geometry" />
        </mxCell>
        <mxCell id="pVRDitvzTMO9ISy7cJ-t-53" value="SDK 1&lt;br style=&quot;font-size: 13px;&quot;&gt;Doc" style="whiteSpace=wrap;html=1;fontSize=13;glass=0;strokeWidth=1;shadow=0;" parent="L4YSeKDSiHvdE6etaK4i-27" vertex="1">
          <mxGeometry y="100" width="120" height="40" as="geometry" />
        </mxCell>
        <mxCell id="pVRDitvzTMO9ISy7cJ-t-55" value="SDK 2&lt;br style=&quot;font-size: 13px;&quot;&gt;Doc" style="whiteSpace=wrap;html=1;fontSize=13;glass=0;strokeWidth=1;shadow=0;" parent="L4YSeKDSiHvdE6etaK4i-27" vertex="1">
          <mxGeometry x="160" y="100" width="120" height="40" as="geometry" />
        </mxCell>
        <mxCell id="pVRDitvzTMO9ISy7cJ-t-57" value="SDK 3&lt;br style=&quot;font-size: 13px;&quot;&gt;Doc" style="whiteSpace=wrap;html=1;fontSize=13;glass=0;strokeWidth=1;shadow=0;" parent="L4YSeKDSiHvdE6etaK4i-27" vertex="1">
          <mxGeometry x="320" y="100" width="120" height="40" as="geometry" />
        </mxCell>
        <mxCell id="pVRDitvzTMO9ISy7cJ-t-59" value="....." style="whiteSpace=wrap;html=1;fontSize=13;glass=0;strokeWidth=1;shadow=0;" parent="L4YSeKDSiHvdE6etaK4i-27" vertex="1">
          <mxGeometry x="480" y="100" width="120" height="40" as="geometry" />
        </mxCell>
        <mxCell id="pVRDitvzTMO9ISy7cJ-t-60" value="&lt;br style=&quot;font-size: 18px;&quot;&gt;user" style="shape=actor;whiteSpace=wrap;html=1;fontSize=18;" parent="L4YSeKDSiHvdE6etaK4i-27" vertex="1">
          <mxGeometry x="290" y="600" width="40" height="60" as="geometry" />
        </mxCell>
        <mxCell id="pVRDitvzTMO9ISy7cJ-t-61" style="edgeStyle=orthogonalEdgeStyle;rounded=0;orthogonalLoop=1;jettySize=auto;html=1;entryX=0.5;entryY=0;entryDx=0;entryDy=0;fontSize=18;" parent="L4YSeKDSiHvdE6etaK4i-27" source="pVRDitvzTMO9ISy7cJ-t-62" target="pVRDitvzTMO9ISy7cJ-t-55" edge="1">
          <mxGeometry relative="1" as="geometry" />
        </mxCell>
        <mxCell id="pVRDitvzTMO9ISy7cJ-t-62" value="Team 2" style="whiteSpace=wrap;html=1;fontSize=18;glass=0;strokeWidth=1;shadow=0;" parent="L4YSeKDSiHvdE6etaK4i-27" vertex="1">
          <mxGeometry x="160" width="120" height="40" as="geometry" />
        </mxCell>
        <mxCell id="pVRDitvzTMO9ISy7cJ-t-63" style="edgeStyle=orthogonalEdgeStyle;rounded=0;orthogonalLoop=1;jettySize=auto;html=1;entryX=0.5;entryY=0;entryDx=0;entryDy=0;fontSize=18;" parent="L4YSeKDSiHvdE6etaK4i-27" source="pVRDitvzTMO9ISy7cJ-t-64" target="pVRDitvzTMO9ISy7cJ-t-53" edge="1">
          <mxGeometry relative="1" as="geometry" />
        </mxCell>
        <mxCell id="pVRDitvzTMO9ISy7cJ-t-64" value="Team 1" style="whiteSpace=wrap;html=1;fontSize=18;glass=0;strokeWidth=1;shadow=0;" parent="L4YSeKDSiHvdE6etaK4i-27" vertex="1">
          <mxGeometry width="120" height="40" as="geometry" />
        </mxCell>
        <mxCell id="pVRDitvzTMO9ISy7cJ-t-65" style="edgeStyle=orthogonalEdgeStyle;rounded=0;orthogonalLoop=1;jettySize=auto;html=1;entryX=0.5;entryY=0;entryDx=0;entryDy=0;fontSize=18;" parent="L4YSeKDSiHvdE6etaK4i-27" source="pVRDitvzTMO9ISy7cJ-t-66" target="pVRDitvzTMO9ISy7cJ-t-57" edge="1">
          <mxGeometry relative="1" as="geometry" />
        </mxCell>
        <mxCell id="pVRDitvzTMO9ISy7cJ-t-66" value="Team3" style="whiteSpace=wrap;html=1;fontSize=18;glass=0;strokeWidth=1;shadow=0;" parent="L4YSeKDSiHvdE6etaK4i-27" vertex="1">
          <mxGeometry x="320" width="120" height="40" as="geometry" />
        </mxCell>
        <mxCell id="pVRDitvzTMO9ISy7cJ-t-67" style="edgeStyle=orthogonalEdgeStyle;rounded=0;orthogonalLoop=1;jettySize=auto;html=1;entryX=0.5;entryY=0;entryDx=0;entryDy=0;fontSize=18;" parent="L4YSeKDSiHvdE6etaK4i-27" source="pVRDitvzTMO9ISy7cJ-t-68" target="pVRDitvzTMO9ISy7cJ-t-59" edge="1">
          <mxGeometry relative="1" as="geometry" />
        </mxCell>
        <mxCell id="pVRDitvzTMO9ISy7cJ-t-68" value="....." style="whiteSpace=wrap;html=1;fontSize=18;glass=0;strokeWidth=1;shadow=0;" parent="L4YSeKDSiHvdE6etaK4i-27" vertex="1">
          <mxGeometry x="480" width="120" height="40" as="geometry" />
        </mxCell>
        <mxCell id="pVRDitvzTMO9ISy7cJ-t-70" value="Github" style="rounded=0;whiteSpace=wrap;html=1;fontSize=18;" parent="L4YSeKDSiHvdE6etaK4i-27" vertex="1">
          <mxGeometry x="220" y="220" width="180" height="40" as="geometry" />
        </mxCell>
        <mxCell id="pVRDitvzTMO9ISy7cJ-t-52" style="edgeStyle=orthogonalEdgeStyle;rounded=0;orthogonalLoop=1;jettySize=auto;html=1;fontSize=18;" parent="L4YSeKDSiHvdE6etaK4i-27" source="pVRDitvzTMO9ISy7cJ-t-53" target="pVRDitvzTMO9ISy7cJ-t-70" edge="1">
          <mxGeometry relative="1" as="geometry">
            <Array as="points">
              <mxPoint x="60" y="170" />
              <mxPoint x="310" y="170" />
            </Array>
          </mxGeometry>
        </mxCell>
        <mxCell id="pVRDitvzTMO9ISy7cJ-t-54" style="edgeStyle=orthogonalEdgeStyle;rounded=0;orthogonalLoop=1;jettySize=auto;html=1;entryX=0.5;entryY=0;entryDx=0;entryDy=0;fontSize=18;" parent="L4YSeKDSiHvdE6etaK4i-27" source="pVRDitvzTMO9ISy7cJ-t-55" target="pVRDitvzTMO9ISy7cJ-t-70" edge="1">
          <mxGeometry relative="1" as="geometry">
            <Array as="points">
              <mxPoint x="220" y="170" />
              <mxPoint x="310" y="170" />
            </Array>
          </mxGeometry>
        </mxCell>
        <mxCell id="pVRDitvzTMO9ISy7cJ-t-56" style="edgeStyle=orthogonalEdgeStyle;rounded=0;orthogonalLoop=1;jettySize=auto;html=1;entryX=0.5;entryY=0;entryDx=0;entryDy=0;fontSize=18;" parent="L4YSeKDSiHvdE6etaK4i-27" source="pVRDitvzTMO9ISy7cJ-t-57" target="pVRDitvzTMO9ISy7cJ-t-70" edge="1">
          <mxGeometry relative="1" as="geometry">
            <Array as="points">
              <mxPoint x="380" y="170" />
              <mxPoint x="310" y="170" />
            </Array>
          </mxGeometry>
        </mxCell>
        <mxCell id="pVRDitvzTMO9ISy7cJ-t-58" style="edgeStyle=orthogonalEdgeStyle;rounded=0;orthogonalLoop=1;jettySize=auto;html=1;entryX=0.5;entryY=0;entryDx=0;entryDy=0;fontSize=18;" parent="L4YSeKDSiHvdE6etaK4i-27" source="pVRDitvzTMO9ISy7cJ-t-59" target="pVRDitvzTMO9ISy7cJ-t-70" edge="1">
          <mxGeometry relative="1" as="geometry">
            <Array as="points">
              <mxPoint x="540" y="170" />
              <mxPoint x="310" y="170" />
            </Array>
          </mxGeometry>
        </mxCell>
        <mxCell id="pVRDitvzTMO9ISy7cJ-t-72" value="Deployed on k8s &lt;br style=&quot;font-size: 18px;&quot;&gt;(with private IP)" style="rounded=0;whiteSpace=wrap;html=1;fontSize=18;" parent="L4YSeKDSiHvdE6etaK4i-27" vertex="1">
          <mxGeometry x="220" y="310" width="180" height="50" as="geometry" />
        </mxCell>
        <mxCell id="pVRDitvzTMO9ISy7cJ-t-69" style="edgeStyle=orthogonalEdgeStyle;rounded=0;orthogonalLoop=1;jettySize=auto;html=1;entryX=0.5;entryY=0;entryDx=0;entryDy=0;fontSize=18;" parent="L4YSeKDSiHvdE6etaK4i-27" source="pVRDitvzTMO9ISy7cJ-t-70" target="pVRDitvzTMO9ISy7cJ-t-72" edge="1">
          <mxGeometry relative="1" as="geometry" />
        </mxCell>
        <mxCell id="pVRDitvzTMO9ISy7cJ-t-73" style="edgeStyle=orthogonalEdgeStyle;rounded=0;orthogonalLoop=1;jettySize=auto;html=1;fontSize=18;" parent="L4YSeKDSiHvdE6etaK4i-27" source="pVRDitvzTMO9ISy7cJ-t-74" edge="1">
          <mxGeometry relative="1" as="geometry">
            <mxPoint x="310" y="590" as="targetPoint" />
          </mxGeometry>
        </mxCell>
        <mxCell id="pVRDitvzTMO9ISy7cJ-t-74" value="&amp;nbsp;Use the url to embed the html page" style="rounded=0;whiteSpace=wrap;html=1;fontSize=18;strokeColor=#FF0000;fontColor=#FF0000;" parent="L4YSeKDSiHvdE6etaK4i-27" vertex="1">
          <mxGeometry x="175" y="470" width="270" height="90" as="geometry" />
        </mxCell>
        <mxCell id="pVRDitvzTMO9ISy7cJ-t-76" value="Output public url" style="text;html=1;strokeColor=#FF0000;fillColor=none;align=center;verticalAlign=middle;whiteSpace=wrap;rounded=0;fontSize=18;fontColor=#FF0000;" parent="L4YSeKDSiHvdE6etaK4i-27" vertex="1">
          <mxGeometry x="220" y="400" width="180" height="35" as="geometry" />
        </mxCell>
        <mxCell id="pVRDitvzTMO9ISy7cJ-t-71" style="edgeStyle=orthogonalEdgeStyle;rounded=0;orthogonalLoop=1;jettySize=auto;html=1;entryX=0.5;entryY=0;entryDx=0;entryDy=0;fontSize=18;" parent="L4YSeKDSiHvdE6etaK4i-27" source="pVRDitvzTMO9ISy7cJ-t-72" target="pVRDitvzTMO9ISy7cJ-t-76" edge="1">
          <mxGeometry relative="1" as="geometry" />
        </mxCell>
        <mxCell id="pVRDitvzTMO9ISy7cJ-t-79" style="edgeStyle=orthogonalEdgeStyle;rounded=0;orthogonalLoop=1;jettySize=auto;html=1;entryX=0.5;entryY=0;entryDx=0;entryDy=0;fontSize=18;strokeColor=#FF0000;" parent="L4YSeKDSiHvdE6etaK4i-27" target="pVRDitvzTMO9ISy7cJ-t-74" edge="1">
          <mxGeometry relative="1" as="geometry">
            <mxPoint x="309.99999999999955" y="429.9999999999998" as="sourcePoint" />
          </mxGeometry>
        </mxCell>
      </root>
    </mxGraphModel>
  </diagram>
</mxfile>
